<svg width="24" height="24" viewBox="0 0 24 24" fill="none" xmlns="http://www.w3.org/2000/svg">
<path d="M15.6665 7.5C15.6665 6.98857 15.8234 6.48944 16.1159 6.06995C16.4085 5.65045 16.8226 5.33078 17.3025 5.15403C17.7825 4.97729 18.305 4.95199 18.7998 5.08154C19.2945 5.21109 19.7376 5.48926 20.0694 5.87853C20.4011 6.2678 20.6054 6.74944 20.6548 7.25847C20.7042 7.76751 20.5963 8.27945 20.3457 8.72525C20.095 9.17105 19.7137 9.52924 19.2531 9.75152C18.7925 9.97381 18.2748 10.0495 17.7698 9.96833L16.0715 12.7667C16.4296 13.2942 16.5727 13.9386 16.4714 14.5681C16.3701 15.1976 16.0322 15.7646 15.5266 16.1531C15.0211 16.5417 14.3862 16.7224 13.7519 16.6583C13.1175 16.5942 12.5316 16.2901 12.114 15.8083L8.9965 17.3667C9.02864 17.9736 8.83854 18.5715 8.46177 19.0485C8.085 19.5255 7.54737 19.8488 6.94944 19.9581C6.35152 20.0674 5.73426 19.9551 5.21315 19.6422C4.69203 19.3293 4.30275 18.8373 4.11812 18.2582C3.93349 17.6791 3.96617 17.0526 4.21004 16.4958C4.45391 15.939 4.89226 15.4902 5.4431 15.2332C5.99394 14.9763 6.61953 14.9288 7.20284 15.0997C7.78615 15.2705 8.28723 15.6481 8.61234 16.1617L11.5548 14.6908C11.4559 14.2303 11.4892 13.7512 11.6507 13.3087C11.8122 12.8663 12.0954 12.4784 12.4677 12.1899C12.84 11.9014 13.2863 11.7239 13.7551 11.6779C14.2238 11.6319 14.6961 11.7193 15.1173 11.93L16.6157 9.46083C16.3195 9.227 16.0803 8.92907 15.9159 8.58944C15.7515 8.24981 15.6662 7.87733 15.6665 7.5Z" fill="#494952"/>
</svg>
