<svg width="24" height="24" viewBox="0 0 24 24" fill="none" xmlns="http://www.w3.org/2000/svg">
<path d="M12 4C16.4184 4 20 7.5816 20 12C20 16.4184 16.4184 20 12 20C10.7058 20.0017 9.43063 19.6881 8.28481 19.0864L4.85281 19.98C4.73813 20.0099 4.61764 20.0092 4.50328 19.9782C4.38892 19.9472 4.28465 19.8868 4.20082 19.803C4.11699 19.7193 4.05649 19.6151 4.02534 19.5007C3.99419 19.3864 3.99345 19.2659 4.02321 19.1512L4.91601 15.72C4.31265 14.573 3.99822 13.296 4.00001 12C4.00001 7.5816 7.58161 4 12 4ZM12 14.8C11.7878 14.8 11.5843 14.8843 11.4343 15.0343C11.2843 15.1843 11.2 15.3878 11.2 15.6C11.2 15.8122 11.2843 16.0157 11.4343 16.1657C11.5843 16.3157 11.7878 16.4 12 16.4C12.2122 16.4 12.4157 16.3157 12.5657 16.1657C12.7157 16.0157 12.8 15.8122 12.8 15.6C12.8 15.3878 12.7157 15.1843 12.5657 15.0343C12.4157 14.8843 12.2122 14.8 12 14.8ZM12 7.8C11.4165 7.8 10.8569 8.03178 10.4444 8.44436C10.0318 8.85694 9.8 9.41652 9.8 10C9.80005 10.152 9.8578 10.2983 9.96158 10.4094C10.0654 10.5205 10.2074 10.5881 10.3591 10.5984C10.5108 10.6088 10.6607 10.5612 10.7786 10.4653C10.8966 10.3693 10.9737 10.2322 10.9944 10.0816L11.0056 9.8976C11.0326 9.64325 11.1561 9.40892 11.3506 9.24281C11.5451 9.0767 11.7958 8.99143 12.0513 9.00455C12.3067 9.01766 12.5474 9.12816 12.7239 9.31332C12.9004 9.49848 12.9992 9.74422 13 10C13 10.4312 12.892 10.644 12.484 11.0656L12.2408 11.3136C11.6376 11.9408 11.4 12.3912 11.4 13.2C11.4 13.3591 11.4632 13.5117 11.5757 13.6243C11.6883 13.7368 11.8409 13.8 12 13.8C12.1591 13.8 12.3117 13.7368 12.4243 13.6243C12.5368 13.5117 12.6 13.3591 12.6 13.2C12.6 12.7688 12.708 12.556 13.116 12.1344L13.3592 11.8864C13.9624 11.2592 14.2 10.8088 14.2 10C14.2 9.41652 13.9682 8.85694 13.5556 8.44436C13.1431 8.03178 12.5835 7.8 12 7.8Z" fill="#494952"/>
</svg>
