<svg width="24" height="24" viewBox="0 0 24 24" fill="none" xmlns="http://www.w3.org/2000/svg">
<path d="M11.0142 4.36012C11.2923 4.12725 11.6406 4 12 4C12.3594 4 12.7077 4.12725 12.9858 4.36012L18.4108 8.88291C18.5954 9.03766 18.744 9.23245 18.8459 9.45316C18.9478 9.67388 19.0004 9.915 19 10.1591V18.363C19 19.267 18.2951 19.9996 17.425 19.9996H15.325C14.4549 19.9996 13.75 19.267 13.75 18.363V14.4208C13.75 14.1198 13.5153 13.8756 13.225 13.8756H10.775C10.4851 13.8756 10.25 14.1198 10.25 14.4208V18.3634C10.25 19.2674 9.54506 20 8.675 20H6.575C5.70536 19.9996 5 19.267 5 18.363V10.1591C4.99956 9.915 5.05219 9.67388 5.1541 9.45316C5.25601 9.23245 5.40464 9.03766 5.58924 8.88291L11.0142 4.36012Z" fill="#494952"/>
</svg>
