<svg width="24" height="24" viewBox="0 0 24 24" fill="none" xmlns="http://www.w3.org/2000/svg">
<path d="M13.88 4C13.5405 4 13.215 4.13486 12.9749 4.3749C12.7349 4.61495 12.6 4.94052 12.6 5.28V7.84C12.6 8.17948 12.7349 8.50505 12.9749 8.7451C13.215 8.98514 13.5405 9.12 13.88 9.12V11.04L16.184 9.12H19C19.3395 9.12 19.6651 8.98514 19.9051 8.7451C20.1451 8.50505 20.28 8.17948 20.28 7.84V5.28C20.28 4.94052 20.1451 4.61495 19.9051 4.3749C19.6651 4.13486 19.3395 4 19 4H13.88ZM8.12 7.2C7.44105 7.2 6.7899 7.46971 6.30981 7.94981C5.82971 8.4299 5.56 9.08105 5.56 9.76C5.56 10.439 5.82971 11.0901 6.30981 11.5702C6.7899 12.0503 7.44105 12.32 8.12 12.32C8.79895 12.32 9.4501 12.0503 9.93019 11.5702C10.4103 11.0901 10.68 10.439 10.68 9.76C10.68 9.08105 10.4103 8.4299 9.93019 7.94981C9.4501 7.46971 8.79895 7.2 8.12 7.2ZM11.32 13.6H4.92C4.41078 13.6 3.92242 13.8023 3.56236 14.1624C3.20229 14.5224 3 15.0108 3 15.52C3 16.9485 3.58752 18.0928 4.55136 18.8672C5.49984 19.6288 6.77216 20 8.12 20C9.46784 20 10.7402 19.6288 11.6886 18.8672C12.6512 18.0928 13.24 16.9485 13.24 15.52C13.24 15.0108 13.0377 14.5224 12.6776 14.1624C12.3176 13.8023 11.8292 13.6 11.32 13.6Z" fill="#494952"/>
</svg>
