<svg width="24" height="24" viewBox="0 0 24 24" fill="none" xmlns="http://www.w3.org/2000/svg">
<path d="M19 18.25C19 18.4489 18.921 18.6397 18.7803 18.7803C18.6397 18.921 18.4489 19 18.25 19H6.75C6.28587 19 5.84075 18.8156 5.51256 18.4874C5.18437 18.1592 5 17.7141 5 17.25V5.75C5 5.55109 5.07902 5.36032 5.21967 5.21967C5.36032 5.07902 5.55109 5 5.75 5C5.94891 5 6.13968 5.07902 6.28033 5.21967C6.42098 5.36032 6.5 5.55109 6.5 5.75V17.25C6.5 17.388 6.612 17.5 6.75 17.5H18.25C18.4489 17.5 18.6397 17.579 18.7803 17.7197C18.921 17.8603 19 18.0511 19 18.25ZM14 7.75C14 7.55109 14.079 7.36032 14.2197 7.21967C14.3603 7.07902 14.5511 7 14.75 7H18.25C18.4489 7 18.6397 7.07902 18.7803 7.21967C18.921 7.36032 19 7.55109 19 7.75V11.25C19 11.4489 18.921 11.6397 18.7803 11.7803C18.6397 11.921 18.4489 12 18.25 12C18.0511 12 17.8603 11.921 17.7197 11.7803C17.579 11.6397 17.5 11.4489 17.5 11.25V9.56L13.53 13.53C13.3894 13.6705 13.1988 13.7493 13 13.7493C12.8012 13.7493 12.6106 13.6705 12.47 13.53L11 12.06L8.78 14.28C8.63783 14.4125 8.44978 14.4846 8.25548 14.4812C8.06118 14.4777 7.87579 14.399 7.73838 14.2616C7.60097 14.1242 7.52225 13.9388 7.51883 13.7445C7.5154 13.5502 7.58752 13.3622 7.72 13.22L10.47 10.47C10.6106 10.3295 10.8012 10.2507 11 10.2507C11.1988 10.2507 11.3894 10.3295 11.53 10.47L13 11.94L16.44 8.5H14.75C14.5511 8.5 14.3603 8.42098 14.2197 8.28033C14.079 8.13968 14 7.94891 14 7.75Z" fill="#494952"/>
</svg>
