<svg width="24" height="24" viewBox="0 0 24 24" fill="none" xmlns="http://www.w3.org/2000/svg">
<path d="M9.68986 9.43864C9.96187 9.20103 10.2851 9.01782 10.6419 8.90981L10.8395 8.85781L10.9675 8.83381L11.1083 8.81381L11.2523 8.80181L11.3995 8.79781H17.3999C18.0639 8.79775 18.7028 9.05174 19.1855 9.50769C19.6682 9.96364 19.9582 10.587 19.996 11.2499L20 11.3979V17.3983C20 18.0624 19.7459 18.7014 19.2898 19.1841C18.8337 19.6669 18.2102 19.9568 17.5471 19.9944L17.3999 19.9984H11.3995C10.7354 19.9984 10.0964 19.7443 9.61367 19.2882C9.13092 18.8321 8.84101 18.2086 8.80341 17.5455L8.79941 17.3991V11.3987L8.80181 11.2795L8.81301 11.1275L8.83381 10.9747L8.86261 10.8259L8.90981 10.6475L8.97382 10.4587L9.04342 10.2971L9.10903 10.1675L9.18423 10.0371L9.30104 9.86347L9.37624 9.76506L9.48425 9.64025L9.57065 9.55065L9.68986 9.43864ZM14.3997 11.1987C14.2547 11.1987 14.1146 11.2513 14.0053 11.3466C13.8961 11.4419 13.825 11.5735 13.8053 11.7172L13.7997 11.7988V13.7981H11.7996C11.6546 13.7981 11.5145 13.8506 11.4052 13.9459C11.2959 14.0412 11.2249 14.1729 11.2051 14.3165L11.1995 14.3981C11.1995 14.7021 11.4251 14.9525 11.718 14.9925L11.7996 14.9981H13.7997V16.999C13.7997 17.3031 14.0253 17.5543 14.3181 17.5935L14.3997 17.5991C14.5447 17.5991 14.6848 17.5466 14.7941 17.4513C14.9033 17.3559 14.9744 17.2243 14.9941 17.0806L14.9997 16.999V14.9981H16.9998C17.145 14.9981 17.2851 14.9455 17.3944 14.85C17.5037 14.7545 17.5747 14.6227 17.5943 14.4789L17.5999 14.3989C17.5999 14.2539 17.5474 14.1138 17.4521 14.0045C17.3567 13.8953 17.2251 13.8242 17.0814 13.8045L16.9998 13.7989H14.9997V11.7988C14.9997 11.6538 14.9472 11.5137 14.8519 11.4044C14.7566 11.2951 14.625 11.2241 14.4813 11.2043L14.3997 11.1987ZM14.8653 5.78485L14.9069 5.92646L15.4622 7.99697H11.3995C10.953 7.99697 10.5108 8.08494 10.0982 8.25587C9.68559 8.42679 9.31072 8.67732 8.99497 8.99314C8.67923 9.30896 8.42879 9.68389 8.25796 10.0965C8.08713 10.5091 7.99926 10.9514 7.99937 11.3979V16.5454C7.4792 16.5144 6.98032 16.3279 6.56737 16.0101C6.15441 15.6923 5.8464 15.2578 5.68324 14.7629L5.64164 14.6221L4.08876 8.82581C3.91675 8.18448 3.99662 7.50164 4.31199 6.91731C4.62736 6.33298 5.15434 5.89145 5.78485 5.68324L5.92726 5.64164L11.7228 4.08876C12.3641 3.91675 13.0469 3.99662 13.6313 4.31199C14.2156 4.62736 14.6571 5.15434 14.8653 5.78485Z" fill="#494952"/>
</svg>
