<svg width="24" height="24" viewBox="0 0 24 24" fill="none" xmlns="http://www.w3.org/2000/svg">
<path d="M12.3333 3C11.9835 3 11.6371 3.06893 11.3138 3.20287C10.9906 3.3368 10.697 3.5331 10.4496 3.78058C10.2022 4.02805 10.006 4.32185 9.8721 4.64519C9.73822 4.96853 9.66932 5.31508 9.66932 5.66506C9.66932 6.01504 9.73822 6.3616 9.8721 6.68494C10.006 7.00828 10.2022 7.30207 10.4496 7.54955C10.697 7.79702 10.9906 7.99333 11.3138 8.12726C11.6371 8.26119 11.9835 8.33013 12.3333 8.33013C13.0399 8.33013 13.7175 8.04934 14.217 7.54955C14.7166 7.04975 14.9973 6.37188 14.9973 5.66506C14.9973 4.95824 14.7166 4.28037 14.217 3.78058C13.7175 3.28078 13.0399 3 12.3333 3Z" fill="#494952"/>
<path d="M18.3333 4.33127C17.8029 4.33127 17.2942 4.54207 16.9191 4.91729C16.544 5.29251 16.3333 5.80142 16.3333 6.33207C16.3333 6.86271 16.544 7.37162 16.9191 7.74685C17.2942 8.12207 17.8029 8.33287 18.3333 8.33287C18.8638 8.33287 19.3725 8.12207 19.7475 7.74685C20.1226 7.37162 20.3333 6.86271 20.3333 6.33207C20.3333 5.80142 20.1226 5.29251 19.7475 4.91729C19.3725 4.54207 18.8638 4.33127 18.3333 4.33127Z" fill="#494952"/>
<path d="M6.33386 4.3313C5.80343 4.3313 5.29472 4.5421 4.91965 4.91732C4.54458 5.29254 4.33386 5.80145 4.33386 6.3321C4.33386 6.86274 4.54458 7.37165 4.91965 7.74687C5.29472 8.1221 5.80343 8.33289 6.33386 8.33289C6.86429 8.33289 7.373 8.1221 7.74807 7.74687C8.12315 7.37165 8.33386 6.86274 8.33386 6.3321C8.33386 5.80145 8.12315 5.29254 7.74807 4.91732C7.373 4.5421 6.86429 4.3313 6.33386 4.3313Z" fill="#494952"/>
<path d="M8.33337 10.9912C8.33584 10.639 8.4774 10.3022 8.72718 10.054C8.97696 9.8059 9.31469 9.66666 9.66671 9.66666H15C15.3537 9.66666 15.6928 9.8072 15.9428 10.0573C16.1929 10.3075 16.3334 10.6468 16.3334 11.0005V15.0021C16.3333 15.4219 16.2676 15.8391 16.1387 16.2386C15.8435 17.1439 15.2353 17.9143 14.4234 18.4113C13.6115 18.9084 12.649 19.0997 11.7089 18.9507C10.7687 18.8018 9.91241 18.3224 9.29375 17.5987C8.67508 16.875 8.33458 15.9544 8.33337 15.0021V10.9912Z" fill="#494952"/>
<path d="M7 11.0005C7 10.5136 7.12933 10.0588 7.35733 9.66662H4.33333C3.97971 9.66662 3.64057 9.80716 3.39052 10.0573C3.14048 10.3075 3 10.6467 3 11.0005V14.3352C2.99982 14.8811 3.13363 15.4188 3.3897 15.9009C3.64576 16.383 4.01623 16.7949 4.46859 17.1003C4.92094 17.4057 5.44134 17.5954 5.98407 17.6526C6.52681 17.7098 7.07528 17.6328 7.58133 17.4284C7.19757 16.6768 6.99829 15.8447 7 15.0007V11.0005Z" fill="#494952"/>
<path d="M17.6666 11.0005V15.0021C17.6666 15.8758 17.4573 16.7001 17.0853 17.4284C17.5913 17.6328 18.1398 17.7098 18.6826 17.6526C19.2253 17.5954 19.7457 17.4058 20.198 17.1003C20.6504 16.7949 21.0209 16.3831 21.2769 15.9009C21.533 15.4188 21.6668 14.8812 21.6666 14.3352V11.0005C21.6666 10.6468 21.5262 10.3075 21.2761 10.0573C21.0261 9.8072 20.6869 9.66666 20.3333 9.66666H17.3093C17.536 10.0588 17.6666 10.5137 17.6666 11.0005Z" fill="#494952"/>
</svg>
