<svg width="16" height="16" viewBox="0 0 16 16" fill="none" xmlns="http://www.w3.org/2000/svg">
<path d="M7.66667 7.66667C6.78261 7.66667 5.93476 7.31548 5.30964 6.69036C4.68452 6.06523 4.33333 5.21739 4.33333 4.33333C4.33333 3.44928 4.68452 2.60143 5.30964 1.97631C5.93476 1.35119 6.78261 1 7.66667 1C8.55072 1 9.39857 1.35119 10.0237 1.97631C10.6488 2.60143 11 3.44928 11 4.33333C11 5.21739 10.6488 6.06523 10.0237 6.69036C9.39857 7.31548 8.55072 7.66667 7.66667 7.66667ZM7.66667 10.1667C10.3217 10.1667 12.7042 10.6425 14.3333 12.7192V14.3333H1V12.7192C2.62917 10.6417 5.01167 10.1667 7.66667 10.1667Z" fill="#939399"/>
</svg>
