<svg width="48" height="48" viewBox="0 0 48 48" fill="none" xmlns="http://www.w3.org/2000/svg">
<path d="M40 10H34.828L29.414 4.586C29.2286 4.39992 29.0082 4.25234 28.7655 4.15177C28.5229 4.0512 28.2627 3.99962 28 4H20C19.7373 3.99962 19.4771 4.0512 19.2345 4.15177C18.9918 4.25234 18.7714 4.39992 18.586 4.586L13.172 10H8C5.794 10 4 11.794 4 14V36C4 38.206 5.794 40 8 40H40C42.206 40 44 38.206 44 36V14C44 11.794 42.206 10 40 10ZM24 34C18.58 34 14 29.42 14 24C14 18.578 18.58 14 24 14C29.42 14 34 18.578 34 24C34 29.42 29.42 34 24 34Z" fill="white"/>
<path d="M26 18H22V22H18V26H22V30H26V26H30V22H26V18Z" fill="white"/>
</svg>
