<svg width="266" height="164" viewBox="0 0 266 164" fill="none" xmlns="http://www.w3.org/2000/svg">
<path d="M130.5 41.2593C67.3 73.2593 17.8333 78.9259 1 77.7593V164H264.5V17.2593C246.167 11.9259 193.7 9.25926 130.5 41.2593Z" fill="url(#paint0_linear_96_1845)" fill-opacity="0.6"/>
<path d="M1 77.7593C17.8333 78.9259 67.3 73.2593 130.5 41.2593C193.7 9.25926 246.167 11.9259 264.5 17.2593" stroke="#3E4DAA" stroke-width="2" stroke-linecap="round" stroke-linejoin="round"/>
<circle cx="132.5" cy="40" r="3" fill="white" stroke="#3E4DAA" stroke-width="2"/>
<circle cx="256.5" cy="16" r="3" fill="white" stroke="#3E4DAA" stroke-width="2"/>
<circle cx="8.5" cy="78" r="3" fill="white" stroke="#3E4DAA" stroke-width="2"/>
<rect x="132.5" y="19.3135" width="6" height="6" rx="1" transform="rotate(45 132.5 19.3135)" fill="#3E4DAA"/>
<rect x="112.5" width="40" height="24" rx="3" fill="#3E4DAA"/>
<rect width="40" height="15" transform="translate(112.5 4.5)" fill="#3E4DAA"/>
<path d="M125.706 16.4091H126.288V15.6172C127.78 15.5142 128.618 14.6335 128.618 13.5256C128.618 12.1619 127.325 11.7216 126.572 11.5227L126.288 11.4446V8.91974C127.041 8.99432 127.588 9.39915 127.666 10.0455H128.518C128.483 9.00852 127.574 8.22017 126.288 8.13494V7.31818H125.706V8.1456C124.488 8.26989 123.575 9.04403 123.575 10.1591C123.575 11.1392 124.285 11.7216 125.422 12.0483L125.706 12.13V14.8182C124.96 14.7401 124.349 14.3565 124.285 13.625H123.376C123.458 14.7436 124.31 15.5249 125.706 15.6172V16.4091ZM126.288 14.8182V12.2969L126.317 12.304C127.084 12.517 127.766 12.7869 127.766 13.5114C127.766 14.2251 127.148 14.7223 126.288 14.8182ZM125.706 11.2884C125.166 11.1357 124.428 10.8374 124.428 10.1165C124.428 9.50213 124.925 9.03338 125.706 8.9304V11.2884ZM132.795 15.5994C134.205 15.5994 135.253 14.7152 135.253 13.5256C135.253 12.6023 134.706 11.9311 133.79 11.7784V11.7216C134.525 11.4979 134.983 10.8942 134.983 10.0739C134.983 9.04403 134.17 8.12784 132.824 8.12784C131.567 8.12784 130.523 8.90199 130.48 10.0455H131.332C131.364 9.32102 132.053 8.89489 132.81 8.89489C133.612 8.89489 134.131 9.38139 134.131 10.1165C134.131 10.8835 133.53 11.3807 132.668 11.3807H132.085V12.1619H132.668C133.772 12.1619 134.386 12.723 134.386 13.5256C134.386 14.2962 133.715 14.8182 132.781 14.8182C131.94 14.8182 131.272 14.3849 131.219 13.6818H130.324C130.377 14.8253 131.386 15.5994 132.795 15.5994ZM137.119 15.5H137.957V13.4581L138.543 12.9148L140.585 15.5H141.651L139.175 12.375L141.48 10.0455H140.443L138.057 12.4744H137.957V8.22727H137.119V15.5Z" fill="white"/>
<defs>
<linearGradient id="paint0_linear_96_1845" x1="94" y1="-0.999999" x2="111.5" y2="143" gradientUnits="userSpaceOnUse">
<stop stop-color="#407BFF"/>
<stop offset="0.750854" stop-color="#5168F4" stop-opacity="0.12"/>
<stop offset="1" stop-color="#5168F4" stop-opacity="0"/>
</linearGradient>
</defs>
</svg>
